<svg xmlns="http://www.w3.org/2000/svg" xmlns:xlink="http://www.w3.org/1999/xlink" width="80" zoomAndPan="magnify" viewBox="0 0 60 60" height="80" preserveAspectRatio="xMidYMid meet" version="1.0"><path fill="#e4ba42" d="M 60 30 C 60 33.90625 59.253906 37.640625 57.894531 41.066406 C 57.164062 42.898438 56.261719 44.640625 55.203125 46.277344 C 53.886719 48.3125 52.328125 50.179688 50.570312 51.835938 C 49.539062 52.808594 48.445312 53.703125 47.285156 54.523438 C 42.398438 57.972656 36.4375 60 30 60 C 23.5625 60 17.601562 57.972656 12.714844 54.523438 C 11.265625 53.5 9.910156 52.351562 8.667969 51.09375 C 3.308594 45.675781 0 38.222656 0 30 C 0 21.777344 3.308594 14.324219 8.667969 8.90625 C 9.984375 7.574219 11.425781 6.367188 12.972656 5.296875 C 17.808594 1.957031 23.675781 0 30 0 C 36.324219 0 42.191406 1.957031 47.027344 5.296875 C 48.210938 6.113281 49.328125 7.011719 50.378906 7.984375 C 52.214844 9.683594 53.839844 11.613281 55.207031 13.722656 C 56.261719 15.355469 57.164062 17.101562 57.894531 18.933594 C 59.253906 22.359375 60 26.089844 60 30 Z M 60 30 " fill-opacity="1" fill-rule="nonzero"/><path fill="#f2f2f2" d="M 45.824219 27.300781 C 44.992188 24.878906 41.566406 24.878906 40.898438 26.882812 C 40.230469 28.886719 42.484375 30.054688 45.992188 31.226562 C 49.5 32.394531 51.671875 35.484375 51.253906 38.238281 C 50.835938 40.996094 49.667969 44.585938 42.738281 44.585938 C 38.40625 44.585938 35.996094 41.878906 34.800781 39.847656 L 38.730469 37.488281 C 38.730469 37.488281 40.066406 40.328125 42.570312 40.328125 C 45.074219 40.328125 46.078125 39.492188 46.078125 37.570312 C 46.078125 35.234375 37.976562 34.398438 36.726562 30.390625 C 35.472656 26.382812 37.140625 20.703125 42.988281 21.121094 C 46.640625 21.382812 48.695312 23.175781 49.722656 24.484375 Z M 45.824219 27.300781 " fill-opacity="1" fill-rule="nonzero"/><path fill="#f2f2f2" d="M 27.621094 21.539062 L 27.621094 37.570312 C 27.621094 39.492188 25.953125 40.496094 24.28125 40.160156 C 22.613281 39.828125 21.859375 37.824219 21.859375 37.824219 L 18.019531 40.410156 C 18.019531 40.410156 18.855469 44.25 24.117188 44.585938 C 29.375 44.921875 32.382812 41.746094 32.382812 39.074219 L 32.382812 21.539062 Z M 27.621094 21.539062 " fill-opacity="1" fill-rule="nonzero"/><path fill="#f2f2f2" d="M 8.667969 5.296875 L 8.667969 51.09375 C 9.910156 52.351562 11.265625 53.5 12.714844 54.523438 L 47.285156 54.523438 C 48.445312 53.703125 49.539062 52.808594 50.570312 51.835938 L 11.355469 51.835938 L 11.355469 7.984375 L 55.203125 7.984375 L 55.203125 46.277344 C 56.261719 44.640625 57.164062 42.898438 57.894531 41.066406 L 57.894531 5.296875 Z M 8.667969 5.296875 " fill-opacity="1" fill-rule="nonzero"/><path fill="#3f4a43" d="M 15.054688 39.742188 C 15.054688 42.371094 12.925781 44.503906 10.296875 44.503906 C 7.667969 44.503906 5.535156 42.371094 5.535156 39.742188 C 5.535156 37.113281 7.667969 34.984375 10.296875 34.984375 C 12.925781 34.984375 15.054688 37.113281 15.054688 39.742188 Z M 15.054688 39.742188 " fill-opacity="1" fill-rule="nonzero"/></svg>